<?xml version="1.0" encoding="UTF-8" standalone="no"?>
<!-- Created with Inkscape (http://www.inkscape.org/) -->

<svg
   xmlns:dc="http://purl.org/dc/elements/1.1/"
   xmlns:cc="http://creativecommons.org/ns#"
   xmlns:rdf="http://www.w3.org/1999/02/22-rdf-syntax-ns#"
   xmlns:svg="http://www.w3.org/2000/svg"
   xmlns="http://www.w3.org/2000/svg"
   version="1.1"
   width="360"
   height="540"
   id="svg2999">
  <defs
     id="defs8" />
  <metadata
     id="metadata3004">
    <rdf:RDF>
      <cc:Work
         rdf:about="">
        <dc:format>image/svg+xml</dc:format>
        <dc:type
           rdf:resource="http://purl.org/dc/dcmitype/StillImage" />

      </cc:Work>
    </rdf:RDF>
  </metadata>
  <g
     transform="translate(0,-512.36218)"
     id="layer1">
    <g
       id="g12669">
      <rect
         width="359"
         height="539"
         ry="29.944447"
         x="0.5"
         y="512.86218"
         id="rect6472"
         style="fill:#ffffff;stroke:#000000;stroke-width:0.99999976" />
      <path
         d="M 33.75,0.5 0.5,67 l 0,2 34.25,-68.5 -1,0 z m 20,0 L 0.5,107 l 0,2 54.25,-108.5 -1,0 z m 10,0 L 0.5,127 l 0,4 65.25,-130.5 -2,0 z m 10,0 L 0.5,147 l 0,6 76.25,-152.5 -3,0 z m 10,0 L 0.5,167 l 0,8 87.25,-174.5 -4,0 z m 10,0 L 0.5,187 l 0,10 98.25,-196.5 -5,0 z m 30,0 L 0.5,247 l 0,2 124.25,-248.5 -1,0 z m 10,0 L 0.5,267 l 0,4 135.25,-270.5 -2,0 z m 10,0 L 0.5,287 l 0,2 144.25,-288.5 -1,0 z m 30,0 L 0.5,347 l 0,10 178.25,-356.5 -5,0 z m 10,0 L 0.5,367 l 0,8 187.25,-374.5 -4,0 z m 10,0 L 0.5,387 l 0,6 196.25,-392.5 -3,0 z m 10,0 L 0.5,407 l 0,4 205.25,-410.5 -2,0 z m 10,0 L 0.5,427 l 0,2 214.25,-428.5 -1,0 z m 20,0 L 0.5,467 l 0,2 234.25,-468.5 -1,0 z m 10,0 L 0.5,487 l 0,4 245.25,-490.5 -2,0 z m 10,0 L 0.5,507 l 0,2.5625 c 0,1.05809 0.0502141,2.09584 0.15625,3.125 L 256.75,0.5 l -3,0 z m 10,0 L 3.09375,521.8125 c 0.5999915,1.34196 1.3109135,2.61611 2.09375,3.84375 L 267.75,0.5 l -4,0 z m 10,0 L 8.84375,530.3125 c 1.0754879,1.11917 2.230584,2.15295 3.46875,3.09375 L 278.75,0.5 l -5,0 z m 30,0 -269.5,539 1,0 269.5,-539 -1,0 z m 10,0 -269.5,539 2,0 269.5,-539 -2,0 z m 10,0 -269.5,539 1,0 269.5,-539 -1,0 z M 25.5625,0.90625 c -0.757214,0.1233765 -1.513325,0.2588189 -2.25,0.4375 L 0.5,47 0.5,51 25.5625,0.90625 z m -11.125,4.1875 C 12.658181,6.2175865 10.997829,7.5370678 9.5,9 L 0.78125,26.46875 C 0.60968403,27.770954 0.5,29.086967 0.5,30.4375 L 0.5,33 14.4375,5.09375 z m 335.375,3.25 L 84.25,539.5 l 5,0 263.8125,-527.625 c -0.99361,-1.257982 -2.06971,-2.4493684 -3.25,-3.53125 z m 6.59375,8.8125 L 95.25,539.5 l 4,0 258.9375,-517.875 c -0.47347,-1.546921 -1.07599,-3.040929 -1.78125,-4.46875 z M 359.5,33 106.25,539.5 l 3,0 L 359.5,39 l 0,-6 z m 0,22 -242.25,484.5 2,0 L 359.5,59 l 0,-4 z m 0,22 -231.25,462.5 1,0 L 359.5,79 l 0,-2 z m 0,40 -211.25,422.5 1,0 210.25,-420.5 0,-2 z m 0,18 -202.25,404.5 2,0 200.25,-400.5 0,-4 z m 0,18 -193.25,386.5 3,0 190.25,-380.5 0,-6 z m 0,18 -184.25,368.5 4,0 180.25,-360.5 0,-8 z m 0,18 -175.25,350.5 5,0 170.25,-340.5 0,-10 z m 0,60 -145.25,290.5 1,0 144.25,-288.5 0,-2 z m 0,18 -136.25,272.5 2,0 134.25,-268.5 0,-4 z m 0,22 -125.25,250.5 1,0 124.25,-248.5 0,-2 z m 0,60 -95.25,190.5 5,0 90.25,-180.5 0,-10 z m 0,22 -84.25,168.5 4,0 80.25,-160.5 0,-8 z m 0,22 -73.25,146.5 3,0 70.25,-140.5 0,-6 z m 0,22 -62.25,124.5 2,0 60.25,-120.5 0,-4 z m 0,22 -51.25,102.5 1,0 50.25,-100.5 0,-2 z m 0,40 -31.25,62.5 1,0 30.25,-60.5 0,-2 z m 0,18 -21.65625,43.34375 c 0.8049,-0.22993 1.59975,-0.48746 2.375,-0.78125 L 359.5,499 l 0,-4 z M 359.21875,513.53125 350.5,531 c 4.66858,-4.55981 7.8204,-10.65015 8.71875,-17.46875 z"
         transform="translate(0,512.36218)"
         id="rect6472-7"
         style="fill:#aa0000;fill-opacity:1;stroke:none" />
      <path
         d="m 35.25,0.5 269.5,539 1,0 -269.5,-539 -1,0 z m 9,0 269.5,539 2,0 -269.5,-539 -2,0 z m 11,0 269.5,539 1,0 -269.5,-539 -1,0 z m 26,0 266.4375,532.90625 c 1.23817,-0.9408 2.39326,-1.97458 3.46875,-3.09375 L 86.25,0.5 l -5,0 z m 11,0 262.5625,525.15625 c 0.78284,-1.22764 1.49376,-2.50179 2.09375,-3.84375 L 96.25,0.5 l -4,0 z m 11,0 256.09375,512.1875 c 0.10604,-1.02916 0.15625,-2.06691 0.15625,-3.125 L 359.5,507 106.25,0.5 l -3,0 z m 11,0 245.25,490.5 0,-4 -243.25,-486.5 -2,0 z m 11,0 234.25,468.5 0,-2 -233.25,-466.5 -1,0 z m 20,0 214.25,428.5 0,-2 -213.25,-426.5 -1,0 z m 9,0 205.25,410.5 0,-4 -203.25,-406.5 -2,0 z m 9,0 196.25,392.5 0,-6 -193.25,-386.5 -3,0 z m 9,0 187.25,374.5 0,-8 -183.25,-366.5 -4,0 z m 9,0 178.25,356.5 0,-10 -173.25,-346.5 -5,0 z m 34,0 144.25,288.5 0,-2 -143.25,-286.5 -1,0 z m 9,0 135.25,270.5 0,-4 -133.25,-266.5 -2,0 z m 11,0 124.25,248.5 0,-2 -123.25,-246.5 -1,0 z m 26,0 98.25,196.5 0,-10 -93.25,-186.5 -5,0 z m 11,0 87.25,174.5 0,-8 -83.25,-166.5 -4,0 z m 11,0 76.25,152.5 0,-6 -73.25,-146.5 -3,0 z m 11,0 65.25,130.5 0,-4 -63.25,-126.5 -2,0 z m 11,0 54.25,108.5 0,-2 -53.25,-106.5 -1,0 z m 20,0 34.25,68.5 0,-2 -33.25,-66.5 -1,0 z M 334.4375,0.90625 359.5,51 l 0,-4 -22.8125,-45.65625 c -0.73668,-0.1786811 -1.49279,-0.3141235 -2.25,-0.4375 z m 11.125,4.1875 L 359.5,33 l 0,-2.5625 c 0,-1.350533 -0.10968,-2.666546 -0.28125,-3.96875 L 350.5,9 c -1.49783,-1.4629322 -3.15818,-2.7824135 -4.9375,-3.90625 z m -335.375,3.25 C 9.0072051,9.4256316 7.9311067,10.617018 6.9375,11.875 L 270.75,539.5 l 5,0 L 10.1875,8.34375 z m -6.59375,8.8125 C 2.8884915,18.584071 2.2859718,20.078079 1.8125,21.625 L 260.75,539.5 l 4,0 L 3.59375,17.15625 z M 0.5,33 l 0,6 250.25,500.5 3,0 L 0.5,33 z m 0,22 0,4 240.25,480.5 2,0 L 0.5,55 z m 0,22 0,2 230.25,460.5 1,0 L 0.5,77 z m 0,40 0,2 210.25,420.5 1,0 L 0.5,117 z m 0,18 0,4 200.25,400.5 2,0 L 0.5,135 z m 0,18 0,6 190.25,380.5 3,0 L 0.5,153 z m 0,18 0,8 180.25,360.5 4,0 L 0.5,171 z m 0,18 0,10 170.25,340.5 5,0 L 0.5,189 z m 0,60 0,2 144.25,288.5 1,0 L 0.5,249 z m 0,18 0,4 134.25,268.5 2,0 L 0.5,267 z m 0,22 0,2 124.25,248.5 1,0 L 0.5,289 z m 0,60 0,10 90.25,180.5 5,0 L 0.5,349 z m 0,22 0,8 80.25,160.5 4,0 L 0.5,371 z m 0,22 0,6 70.25,140.5 3,0 L 0.5,393 z m 0,22 0,4 60.25,120.5 2,0 L 0.5,415 z m 0,22 0,2 50.25,100.5 1,0 L 0.5,437 z m 0,40 0,2 30.25,60.5 1,0 L 0.5,477 z m 0,18 0,4 19.28125,38.5625 c 0.77525,0.29379 1.570105,0.55132 2.375,0.78125 L 0.5,495 z m 0.28125,18.53125 C 1.6796034,520.34985 4.8314224,526.44019 9.5,531 L 0.78125,513.53125 z"
         transform="translate(0,512.36218)"
         id="rect6472-2"
         style="fill:#55ab55;fill-opacity:1;stroke:none" />
    </g>
  </g>
</svg>
